<svg width="134.452820" height="26.890625" viewBox="0 0 134.453 26.8906" fill="none" xmlns="http://www.w3.org/2000/svg" xmlns:xlink="http://www.w3.org/1999/xlink">
	<desc>
			Created with Pixso.
	</desc>
	<defs/>
	<path id="Star 1" d="M12.5 2.71L10.51 8.43C10.37 8.83 10 9.1 9.58 9.1L3.53 9.23C2.58 9.25 2.19 10.45 2.95 11.02L7.77 14.68C8.1 14.93 8.25 15.37 8.12 15.77L6.37 21.56C6.1 22.47 7.12 23.22 7.9 22.67L12.87 19.22C13.21 18.98 13.67 18.98 14.01 19.22L18.98 22.67C19.76 23.22 20.78 22.47 20.51 21.56L18.76 15.77C18.64 15.37 18.78 14.93 19.11 14.68L23.94 11.02C24.69 10.45 24.3 9.25 23.35 9.23L17.3 9.1C16.88 9.1 16.51 8.83 16.37 8.43L14.38 2.71C14.07 1.82 12.81 1.82 12.5 2.71Z" fill="#FFCC00" fill-opacity="1.000000" fill-rule="evenodd"/>
	<path id="Star 2" d="M39.39 2.71L37.4 8.43C37.26 8.83 36.89 9.1 36.47 9.1L30.42 9.23C29.47 9.25 29.08 10.45 29.84 11.02L34.66 14.68C34.99 14.93 35.14 15.37 35.01 15.77L33.26 21.56C32.99 22.47 34.01 23.22 34.79 22.67L39.76 19.22C40.1 18.98 40.56 18.98 40.9 19.22L45.87 22.67C46.65 23.22 47.68 22.47 47.4 21.56L45.65 15.77C45.53 15.37 45.67 14.93 46 14.68L50.83 11.02C51.58 10.45 51.19 9.25 50.24 9.23L44.19 9.1C43.77 9.1 43.4 8.83 43.26 8.43L41.28 2.71C40.96 1.82 39.7 1.82 39.39 2.71Z" fill="#FFCC00" fill-opacity="1.000000" fill-rule="evenodd"/>
	<path id="Star 3" d="M66.28 2.71L64.29 8.43C64.15 8.83 63.78 9.1 63.36 9.1L57.31 9.23C56.36 9.25 55.97 10.45 56.73 11.02L61.55 14.68C61.89 14.93 62.03 15.37 61.91 15.77L60.15 21.56C59.88 22.47 60.9 23.22 61.68 22.67L66.65 19.22C66.99 18.98 67.45 18.98 67.79 19.22L72.76 22.67C73.54 23.22 74.57 22.47 74.29 21.56L72.54 15.77C72.42 15.37 72.56 14.93 72.89 14.68L77.72 11.02C78.47 10.45 78.08 9.25 77.13 9.23L71.08 9.1C70.66 9.1 70.29 8.83 70.15 8.43L68.17 2.71C67.85 1.82 66.59 1.82 66.28 2.71Z" fill="#FFCC00" fill-opacity="1.000000" fill-rule="evenodd"/>
	<path id="Star 4" d="M93.17 2.71L91.18 8.43C91.04 8.83 90.67 9.1 90.26 9.1L84.2 9.23C83.25 9.25 82.86 10.45 83.62 11.02L88.44 14.68C88.78 14.93 88.92 15.37 88.8 15.77L87.04 21.56C86.77 22.47 87.79 23.22 88.57 22.67L93.54 19.22C93.88 18.98 94.34 18.98 94.68 19.22L99.65 22.67C100.43 23.22 101.46 22.47 101.18 21.56L99.43 15.77C99.31 15.37 99.45 14.93 99.78 14.68L104.61 11.02C105.36 10.45 104.97 9.25 104.02 9.23L97.97 9.1C97.55 9.1 97.18 8.83 97.04 8.43L95.06 2.71C94.75 1.82 93.48 1.82 93.17 2.71Z" fill="#FFCC00" fill-opacity="1.000000" fill-rule="evenodd"/>
	<path id="Star 5" d="M120.06 2.71L118.07 8.43C117.93 8.83 117.56 9.1 117.15 9.1L111.09 9.23C110.14 9.25 109.75 10.45 110.51 11.02L115.33 14.68C115.67 14.93 115.81 15.37 115.69 15.77L113.93 21.56C113.66 22.47 114.68 23.22 115.46 22.67L120.43 19.22C120.78 18.98 121.23 18.98 121.57 19.22L126.54 22.67C127.32 23.22 128.35 22.47 128.07 21.56L126.32 15.77C126.2 15.37 126.34 14.93 126.67 14.68L131.5 11.02C132.25 10.45 131.86 9.25 130.91 9.23L124.86 9.1C124.44 9.1 124.07 8.83 123.94 8.43L121.95 2.71C121.64 1.82 120.37 1.82 120.06 2.71Z" fill="#FFCC00" fill-opacity="1.000000" fill-rule="evenodd"/>
</svg>
